<?xml version="1.0" encoding="utf-8"?>
<!-- Generator: Adobe Illustrator 23.0.4, SVG Export Plug-In . SVG Version: 6.00 Build 0)  -->
<svg version="1.1" id="glob" xmlns="http://www.w3.org/2000/svg" xmlns:xlink="http://www.w3.org/1999/xlink" x="0px" y="0px"
	 viewBox="0 0 26.92 22.48" style="enable-background:new 0 0 26.92 22.48;" xml:space="preserve">
<style type="text/css">
	.st0{fill:#09003C;}
</style>
<g>
	<g id="Component" class="st1">
		<path id="Rectangle_1" class="st0" d="M1.5,9.74h23.92c0.83,0,1.5,0.67,1.5,1.5l0,0c0,0.83-0.67,1.5-1.5,1.5H1.5
			c-0.83,0-1.5-0.67-1.5-1.5l0,0C0,10.41,0.67,9.74,1.5,9.74z"/>
		<path id="Rectangle_2" class="st0" d="M1.5,0h23.92c0.83,0,1.5,0.67,1.5,1.5l0,0c0,0.83-0.67,1.5-1.5,1.5H1.5C0.67,3,0,2.33,0,1.5
			l0,0C0,0.67,0.67,0,1.5,0z"/>
		<path id="Rectangle_3" class="st0" d="M1.5,19.48h23.92c0.83,0,1.5,0.67,1.5,1.5l0,0c0,0.83-0.67,1.5-1.5,1.5H1.5
			c-0.83,0-1.5-0.67-1.5-1.5l0,0C0,20.15,0.67,19.48,1.5,19.48z"/>
	</g>
</g>
</svg>
