<?xml version="1.0" encoding="utf-8"?>
<!-- Generator: Adobe Illustrator 23.0.4, SVG Export Plug-In . SVG Version: 6.00 Build 0)  -->
<svg version="1.1" id="Layer_1" xmlns="http://www.w3.org/2000/svg" xmlns:xlink="http://www.w3.org/1999/xlink" x="0px" y="0px"
	 viewBox="0 0 160.34 46.55" style="enable-background:new 0 0 160.34 46.55;" xml:space="preserve">
<style type="text/css">
	.st0{fill:#09003C;}
</style>
<g>
	<g>
		<path class="st0" d="M9.28,39.77c0,3.82-1.48,6.73-5.62,6.73c-1.64,0-3.07-0.95-3.66-1.48v-2.44c0.69,0.69,2.17,1.38,3.29,1.38
			c2.23,0,3.07-0.95,3.07-4.45V4.2h2.92V39.77z"/>
		<path class="st0" d="M31.8,36.01l-0.16-3.29c-1.43,2.76-4.66,3.98-7.31,3.98c-5.14,0-9.01-4.13-9.01-9.75
			c0-5.62,3.87-9.7,9.01-9.7c2.6,0,5.88,1.17,7.31,3.98l0.16-3.29h2.33v18.07H31.8z M18.02,26.94c0,4.72,3.13,7.47,6.78,7.47
			c3.55,0,6.78-2.7,6.78-7.47c0-4.82-3.23-7.42-6.78-7.42C21.15,19.52,18.02,22.23,18.02,26.94z"/>
		<path class="st0" d="M66.78,36.01v-10.6c0-4.35-1.59-5.72-4.4-5.72c-3.02,0-5.83,3.02-5.83,6.2v10.12h-2.7v-10.6
			c0-4.35-1.54-5.72-4.4-5.72c-2.97,0-5.83,3.02-5.83,6.2v10.12h-2.7V17.93h2.39l0.16,3.34c1.17-2.23,3.6-4.03,6.63-4.03
			c3.55,0,5.19,1.8,6.04,4.24c1.43-2.49,3.87-4.24,6.89-4.24c4.45,0,6.47,2.81,6.47,7.9v10.87H66.78z"/>
		<path class="st0" d="M74.31,46.55c-1.43,0-2.54-0.74-3.02-1.11v-2.07c0.58,0.48,1.7,1.06,2.54,1.06c1.7,0,2.39-0.8,2.39-3.45
			V17.93h2.7V41.2C78.92,44.28,77.65,46.55,74.31,46.55z M76.22,11.78V8.55h2.7v3.23H76.22z"/>
		<path class="st0" d="M101.13,36.01l-0.16-3.29c-1.43,2.76-4.66,3.98-7.31,3.98c-5.14,0-9.01-4.13-9.01-9.75
			c0-5.62,3.87-9.7,9.01-9.7c2.6,0,5.88,1.17,7.31,3.98l0.16-3.29h2.33v18.07H101.13z M87.35,26.94c0,4.72,3.13,7.47,6.78,7.47
			c3.55,0,6.78-2.7,6.78-7.47c0-4.82-3.23-7.42-6.78-7.42C90.47,19.52,87.35,22.23,87.35,26.94z"/>
		<path class="st0" d="M112.95,25.25v10.76h-2.7V17.93h2.39l0.16,3.29c1.32-2.07,4.19-3.98,7.05-3.98v2.97
			C116.5,19.68,112.95,22.07,112.95,25.25z"/>
	</g>
	<g>
		<g>
			<path class="st0" d="M137.58,36.65c-2.31,0-4.18-1.88-4.18-4.18l-0.01-15.07c0-0.67,0.54-1.2,1.2-1.21c0,0,0,0,0,0
				c0.67,0,1.2,0.54,1.2,1.2l0.01,15.07c0,0.98,0.8,1.77,1.77,1.77c0,0,0,0,0,0l18.58-0.01c0.47,0,0.92-0.19,1.25-0.52
				c0.33-0.34,0.52-0.78,0.52-1.26l-0.01-18.58c0-0.47-0.19-0.92-0.52-1.25c-0.34-0.33-0.78-0.52-1.25-0.52c0,0,0,0,0,0
				c-0.67,0-1.2-0.54-1.2-1.2c0-0.67,0.54-1.2,1.2-1.21c0,0,0,0,0,0c1.12,0,2.17,0.43,2.96,1.22c0.79,0.79,1.23,1.84,1.23,2.96
				l0.01,18.58c0,1.12-0.43,2.17-1.22,2.96c-0.79,0.79-1.84,1.23-2.96,1.23L137.58,36.65C137.58,36.65,137.58,36.65,137.58,36.65z"
				/>
		</g>
		<g>
			<path class="st0" d="M137.56,8.38c-1.12,0-2.17-0.43-2.96-1.22c-0.79-0.79-1.23-1.84-1.23-2.96c0-0.67,0.54-1.2,1.2-1.21
				c0,0,0,0,0,0c0.67,0,1.2,0.54,1.2,1.2c0,0.47,0.19,0.92,0.52,1.25c0.34,0.33,0.78,0.52,1.25,0.52c0,0,0,0,0,0l18.58-0.01
				c0.98,0,1.77-0.8,1.77-1.78c0-0.98-0.8-1.77-1.77-1.77c0,0,0,0,0,0c-0.67,0-1.2-0.54-1.2-1.2c0-0.67,0.54-1.2,1.2-1.21
				c0,0,0,0,0,0c2.31,0,4.18,1.87,4.18,4.18c0,2.31-1.87,4.19-4.18,4.19L137.56,8.38C137.56,8.38,137.56,8.38,137.56,8.38z"/>
		</g>
	</g>
</g>
</svg>
