<?xml version="1.0" encoding="utf-8"?>
<!-- Generator: Adobe Illustrator 23.0.4, SVG Export Plug-In . SVG Version: 6.00 Build 0)  -->
<svg version="1.1" id="logo" xmlns="http://www.w3.org/2000/svg" xmlns:xlink="http://www.w3.org/1999/xlink" x="0px" y="0px"
	 viewBox="0 0 160.35 46.57" style="enable-background:new 0 0 160.35 46.57;" xml:space="preserve">
<style type="text/css">
	.st0{fill:#09003C;}
</style>
<title>Jamjar logo</title>
<g>
	<g>
		<path class="st0" d="M9.28,39.78c0,3.82-1.48,6.73-5.62,6.73c-1.64,0-3.07-0.95-3.66-1.48v-2.44c0.69,0.69,2.17,1.38,3.29,1.38
			c2.23,0,3.07-0.95,3.07-4.45V4.22h2.92V39.78z"/>
		<path class="st0" d="M31.81,36.02l-0.16-3.29c-1.43,2.76-4.66,3.98-7.31,3.98c-5.14,0-9.01-4.13-9.01-9.75s3.87-9.7,9.01-9.7
			c2.6,0,5.88,1.17,7.31,3.98l0.16-3.29h2.33v18.07C34.14,36.02,31.81,36.02,31.81,36.02z M18.03,26.95c0,4.72,3.13,7.47,6.78,7.47
			c3.55,0,6.78-2.7,6.78-7.47c0-4.82-3.23-7.42-6.78-7.42C21.15,19.53,18.03,22.24,18.03,26.95z"/>
		<path class="st0" d="M66.79,36.02v-10.6c0-4.35-1.59-5.72-4.4-5.72c-3.02,0-5.83,3.02-5.83,6.2v10.12h-2.7v-10.6
			c0-4.35-1.54-5.72-4.4-5.72c-2.97,0-5.83,3.02-5.83,6.2v10.12h-2.7V17.94h2.39l0.16,3.34c1.17-2.23,3.6-4.03,6.63-4.03
			c3.55,0,5.19,1.8,6.04,4.24c1.43-2.49,3.87-4.24,6.89-4.24c4.45,0,6.47,2.81,6.47,7.9v10.87H66.79z"/>
		<path class="st0" d="M74.31,46.57c-1.43,0-2.54-0.74-3.02-1.11v-2.07c0.58,0.48,1.7,1.06,2.54,1.06c1.7,0,2.39-0.8,2.39-3.45
			V17.94h2.7v23.27C78.93,44.29,77.65,46.57,74.31,46.57z M76.22,11.8V8.56h2.7v3.23L76.22,11.8L76.22,11.8z"/>
		<path class="st0" d="M101.13,36.02l-0.16-3.29c-1.43,2.76-4.66,3.98-7.31,3.98c-5.14,0-9.01-4.13-9.01-9.75s3.87-9.7,9.01-9.7
			c2.6,0,5.88,1.17,7.31,3.98l0.16-3.29h2.33v18.07C103.46,36.02,101.13,36.02,101.13,36.02z M87.35,26.95
			c0,4.72,3.13,7.47,6.78,7.47c3.55,0,6.78-2.7,6.78-7.47c0-4.82-3.23-7.42-6.78-7.42C90.48,19.53,87.35,22.24,87.35,26.95z"/>
		<path class="st0" d="M112.95,25.26v10.76h-2.7V17.94h2.39l0.16,3.29c1.32-2.07,4.19-3.98,7.05-3.98v2.97
			C116.5,19.69,112.95,22.08,112.95,25.26z"/>
	</g>
	<g>
		<g>
			<path class="st0" d="M137.59,36.66c-2.31,0-4.18-1.88-4.18-4.18l-0.01-15.07c0-0.67,0.54-1.2,1.2-1.21l0,0
				c0.67,0,1.2,0.54,1.2,1.2l0.01,15.07c0,0.98,0.8,1.77,1.77,1.77l0,0l18.58-0.01c0.47,0,0.92-0.19,1.25-0.52
				c0.33-0.34,0.52-0.78,0.52-1.26l-0.01-18.58c0-0.47-0.19-0.92-0.52-1.25c-0.34-0.33-0.78-0.52-1.25-0.52l0,0
				c-0.67,0-1.2-0.54-1.2-1.2c0-0.67,0.54-1.2,1.2-1.21l0,0c1.12,0,2.17,0.43,2.96,1.22c0.79,0.79,1.23,1.84,1.23,2.96l0.01,18.58
				c0,1.12-0.43,2.17-1.22,2.96c-0.79,0.79-1.84,1.23-2.96,1.23L137.59,36.66L137.59,36.66z"/>
		</g>
		<g>
			<path class="st0" d="M137.57,8.39c-1.12,0-2.17-0.43-2.96-1.22c-0.79-0.79-1.23-1.84-1.23-2.96c0-0.67,0.54-1.2,1.2-1.21l0,0
				c0.67,0,1.2,0.54,1.2,1.2c0,0.47,0.19,0.92,0.52,1.25c0.34,0.33,0.78,0.52,1.25,0.52l0,0l18.58-0.01c0.98,0,1.77-0.8,1.77-1.78
				s-0.8-1.77-1.77-1.77l0,0c-0.67,0-1.2-0.54-1.2-1.2c0-0.67,0.54-1.2,1.2-1.21l0,0c2.31,0,4.18,1.87,4.18,4.18
				s-1.87,4.19-4.18,4.19L137.57,8.39L137.57,8.39z"/>
		</g>
	</g>
</g>
</svg>
